<svg width="18" height="16" viewBox="0 0 18 16" fill="none" xmlns="http://www.w3.org/2000/svg">
<path d="M3 14V14.525C3 14.9417 2.85833 15.2917 2.575 15.575C2.29167 15.8583 1.93333 16 1.5 16C1.08333 16 0.729167 15.8542 0.4375 15.5625C0.145833 15.2708 0 14.9167 0 14.5V7L2.1 1C2.2 0.7 2.37917 0.458333 2.6375 0.275C2.89583 0.0916667 3.18333 0 3.5 0H14.5C14.8167 0 15.1042 0.0916667 15.3625 0.275C15.6208 0.458333 15.8 0.7 15.9 1L18 7V14.525C18 14.9417 17.8583 15.2917 17.575 15.575C17.2917 15.8583 16.9333 16 16.5 16C16.0833 16 15.7292 15.8542 15.4375 15.5625C15.1458 15.2708 15 14.9167 15 14.5V14H3ZM2.8 5H15.2L14.15 2H3.85L2.8 5ZM4.5 11C4.91667 11 5.27083 10.8542 5.5625 10.5625C5.85417 10.2708 6 9.91667 6 9.5C6 9.08333 5.85417 8.72917 5.5625 8.4375C5.27083 8.14583 4.91667 8 4.5 8C4.08333 8 3.72917 8.14583 3.4375 8.4375C3.14583 8.72917 3 9.08333 3 9.5C3 9.91667 3.14583 10.2708 3.4375 10.5625C3.72917 10.8542 4.08333 11 4.5 11ZM13.5 11C13.9167 11 14.2708 10.8542 14.5625 10.5625C14.8542 10.2708 15 9.91667 15 9.5C15 9.08333 14.8542 8.72917 14.5625 8.4375C14.2708 8.14583 13.9167 8 13.5 8C13.0833 8 12.7292 8.14583 12.4375 8.4375C12.1458 8.72917 12 9.08333 12 9.5C12 9.91667 12.1458 10.2708 12.4375 10.5625C12.7292 10.8542 13.0833 11 13.5 11ZM2 12H16V7H2V12Z" fill="#C1C8CD"/>
</svg>
